<?xml version="1.0" standalone="no"?>
<!DOCTYPE svg PUBLIC "-//W3C//DTD SVG 20010904//EN"
 "http://www.w3.org/TR/2001/REC-SVG-20010904/DTD/svg10.dtd">
<svg version="1.0" xmlns="http://www.w3.org/2000/svg"
 width="360.000000pt" height="360.000000pt" viewBox="0 0 360.000000 360.000000"
 preserveAspectRatio="xMidYMid meet">

<g transform="translate(0.000000,360.000000) scale(0.100000,-0.100000)"
fill="#000000" stroke="none">
<path d="M884 3032 c-39 -31 -44 -56 -44 -206 l0 -146 960 0 960 0 0 156 0
156 -29 29 -29 29 -899 0 c-836 0 -899 -2 -919 -18z m1124 -134 c17 -17 15
-38 -5 -60 -22 -24 -134 -26 -157 -2 -19 18 -21 45 -4 62 16 16 150 16 166 0z
m300 0 c17 -17 15 -38 -5 -60 -22 -24 -134 -26 -157 -2 -19 18 -21 45 -4 62
16 16 150 16 166 0z m300 0 c17 -17 15 -44 -4 -62 -22 -23 -131 -22 -156 1
-21 19 -23 44 -6 61 16 16 150 16 166 0z"/>
<path d="M584 2806 l-34 -34 0 -805 c0 -785 0 -805 20 -829 10 -14 32 -30 47
-37 21 -8 334 -11 1201 -9 l1174 3 29 33 29 32 0 800 c0 598 -3 806 -12 825
-17 37 -58 55 -127 55 l-61 0 -2 -719 c-3 -709 -3 -720 -24 -747 -11 -15 -37
-42 -58 -58 l-38 -31 -928 0 -928 0 -39 31 c-21 17 -48 48 -60 70 l-23 39 0
708 0 707 -66 0 c-62 0 -68 -2 -100 -34z"/>
<path d="M840 2020 c0 -420 3 -576 12 -595 26 -57 -9 -55 948 -55 957 0 922
-2 948 55 9 19 12 175 12 595 l0 570 -960 0 -960 0 0 -570z m301 332 c15 -40
-19 -62 -96 -62 -57 0 -66 3 -80 24 -13 19 -14 29 -5 46 10 19 18 21 92 18 74
-3 82 -5 89 -26z m1499 8 c12 -23 0 -54 -26 -64 -8 -3 -312 -6 -674 -6 -585 0
-660 2 -674 16 -19 18 -21 45 -4 62 9 9 176 12 690 12 667 0 677 0 688 -20z
m-1102 -386 c145 -72 145 -271 -1 -346 -87 -44 -213 -4 -257 82 -22 43 -27
121 -9 167 24 64 109 122 180 123 19 0 59 -12 87 -26z m419 2 c128 -60 150
-223 43 -320 -43 -39 -88 -51 -156 -43 -192 21 -224 293 -44 371 50 22 98 19
157 -8z m-773 -8 c9 -12 16 -26 16 -31 0 -5 -30 -40 -67 -78 l-66 -69 66 -69
c37 -38 67 -72 67 -76 0 -23 -24 -45 -49 -45 -21 0 -46 19 -114 89 -48 49 -87
94 -87 101 0 20 181 200 201 200 10 0 25 -10 33 -22z m1095 9 c40 -20 66 -64
65 -109 -1 -35 -8 -48 -38 -75 -30 -28 -43 -33 -85 -33 l-50 0 -3 -67 c-3 -63
-5 -68 -27 -71 -13 -2 -28 2 -32 10 -12 19 -11 315 1 339 9 16 22 19 78 19 37
0 78 -6 91 -13z m278 -79 c51 -51 93 -99 93 -107 0 -7 -39 -54 -87 -103 -77
-78 -91 -89 -118 -86 -25 2 -31 8 -33 32 -3 24 7 40 62 95 l66 67 -61 59 c-33
33 -64 67 -69 76 -11 20 14 59 38 59 9 0 58 -42 109 -92z"/>
<path d="M1394 1911 c-44 -27 -64 -59 -64 -104 0 -78 48 -127 124 -127 55 0
101 35 117 89 10 32 8 45 -9 83 -31 71 -105 97 -168 59z"/>
<path d="M1813 1910 c-81 -49 -83 -174 -3 -215 67 -35 141 -10 176 57 30 57
-2 139 -63 164 -44 19 -72 17 -110 -6z"/>
<path d="M2170 1875 l0 -45 45 0 c39 0 47 4 57 25 16 36 -12 65 -64 65 l-38 0
0 -45z"/>
<path d="M1620 957 c0 -32 -6 -49 -22 -64 -57 -52 -169 -89 -401 -134 -189
-36 -251 -64 -337 -149 l-55 -55 498 -3 c273 -1 721 -1 995 0 l497 3 -56 57
c-31 31 -82 69 -115 86 -59 30 -75 34 -279 73 -178 34 -291 74 -342 122 -17
15 -23 32 -23 64 l0 43 -180 0 -180 0 0 -43z"/>
</g>
</svg>
