<?xml version="1.0" standalone="no"?>
<!DOCTYPE svg PUBLIC "-//W3C//DTD SVG 20010904//EN"
 "http://www.w3.org/TR/2001/REC-SVG-20010904/DTD/svg10.dtd">
<svg version="1.0" xmlns="http://www.w3.org/2000/svg"
 width="225.000000pt" height="225.000000pt" viewBox="0 0 225.000000 225.000000"
 preserveAspectRatio="xMidYMid meet">

<g transform="translate(0.000000,225.000000) scale(0.100000,-0.100000)"
fill="#000000" stroke="none">
<path d="M1262 1995 c-53 -49 -90 -94 -106 -128 -19 -37 -24 -44 -20 -22 l6
30 -26 -30 c-14 -16 -47 -72 -74 -124 -45 -90 -47 -98 -47 -177 0 -89 -12 -98
-24 -18 l-7 49 -23 -60 c-59 -153 -80 -308 -61 -445 14 -104 31 -142 90 -199
49 -48 41 -47 -32 6 l-46 33 14 -62 c25 -108 88 -220 171 -306 l74 -77 -5 115
c-3 63 -8 138 -10 165 -5 50 -5 50 4 10 6 -22 13 -105 16 -185 6 -142 3 -171
-30 -285 -4 -11 3 -2 14 20 11 22 20 34 20 27 0 -19 -40 -100 -58 -114 -12
-11 -12 -7 2 17 l18 30 -21 -25 c-11 -14 -21 -30 -21 -37 0 -14 48 -30 78 -25
47 7 51 30 41 247 -10 229 -25 338 -74 515 -39 147 -42 145 -14 -9 29 -162 19
-158 -15 6 -31 149 -45 404 -29 493 7 36 9 21 10 -75 1 -145 12 -223 64 -420
44 -172 69 -320 69 -419 0 -60 2 -67 15 -56 30 25 11 256 -34 400 -11 36 -19
66 -17 68 6 5 33 -82 52 -163 9 -38 19 -117 22 -175 l7 -105 34 53 c40 63 77
174 86 262 8 75 -8 205 -33 281 l-18 52 -18 -46 c-9 -25 -24 -51 -32 -57 -18
-16 -18 -11 1 33 24 58 19 113 -19 202 -39 91 -66 209 -66 287 0 121 47 297
118 441 21 42 37 77 37 77 -1 0 -38 -34 -83 -75z m-95 -1637 c-3 -8 -6 -5 -6
6 -1 11 2 17 5 13 3 -3 4 -12 1 -19z"/>
</g>
</svg>
